<?xml version="1.0" standalone="no"?>
<!DOCTYPE svg PUBLIC "-//W3C//DTD SVG 20010904//EN"
 "http://www.w3.org/TR/2001/REC-SVG-20010904/DTD/svg10.dtd">
<svg version="1.0" xmlns="http://www.w3.org/2000/svg"
 width="797.000000pt" height="798.000000pt" viewBox="0 0 797.000000 798.000000"
 preserveAspectRatio="xMidYMid meet">

<g transform="translate(0.000000,798.000000) scale(0.100000,-0.100000)"
fill="#000000" stroke="none">
<path d="M3640 7720 c-14 -4 -47 -8 -74 -9 -44 -1 -201 -28 -296 -51 -19 -5
-62 -14 -95 -20 -67 -13 -234 -59 -290 -80 -11 -4 -49 -17 -85 -28 -89 -28
-127 -42 -180 -65 -25 -11 -54 -23 -65 -27 -11 -4 -40 -17 -65 -28 -25 -11
-72 -30 -105 -43 -33 -13 -82 -36 -108 -51 -26 -15 -49 -28 -51 -28 -2 0 -33
-17 -67 -38 -35 -21 -77 -44 -94 -52 -16 -8 -38 -23 -49 -32 -10 -9 -34 -24
-52 -33 -18 -8 -39 -21 -46 -28 -7 -7 -40 -33 -73 -57 -33 -24 -76 -58 -96
-75 -57 -48 -71 -59 -124 -95 -57 -39 -120 -96 -289 -265 -158 -157 -238 -251
-282 -330 -9 -16 -30 -44 -47 -62 -16 -18 -40 -48 -51 -67 -12 -19 -54 -83
-94 -142 -41 -59 -77 -117 -82 -129 -4 -12 -19 -38 -33 -59 -38 -55 -183 -356
-192 -396 -4 -19 -15 -51 -25 -70 -10 -19 -24 -53 -31 -75 -6 -22 -15 -44 -19
-50 -4 -5 -13 -27 -20 -48 -7 -22 -18 -51 -26 -65 -8 -15 -14 -36 -14 -47 0
-11 -12 -51 -25 -90 -14 -38 -30 -107 -36 -152 -7 -46 -15 -83 -19 -83 -8 0
-28 -118 -34 -200 -2 -30 -8 -73 -14 -95 -6 -22 -16 -103 -23 -180 -6 -77 -14
-158 -17 -180 -12 -94 -10 -323 4 -395 7 -41 20 -129 28 -195 8 -66 20 -144
25 -172 6 -29 15 -74 20 -100 18 -89 41 -181 52 -209 6 -16 19 -63 30 -104 10
-41 23 -84 28 -95 14 -33 49 -128 56 -155 14 -47 107 -265 121 -281 8 -8 14
-19 14 -22 0 -14 80 -174 98 -198 11 -13 38 -58 63 -99 24 -41 46 -77 49 -80
3 -3 21 -30 40 -60 19 -30 37 -57 41 -60 3 -3 18 -23 32 -45 49 -74 61 -90
136 -180 109 -133 182 -215 221 -253 19 -19 76 -73 125 -120 50 -48 114 -107
144 -132 29 -25 58 -50 64 -55 7 -6 45 -35 85 -64 39 -30 72 -58 72 -62 0 -5
5 -9 10 -9 6 0 64 -36 129 -80 66 -44 122 -80 127 -80 4 0 15 -7 24 -15 18
-16 48 -32 205 -112 126 -64 259 -127 305 -143 44 -15 69 -25 100 -38 14 -6
43 -16 65 -22 22 -6 49 -15 60 -20 41 -18 222 -70 242 -70 12 0 25 -5 28 -10
3 -6 21 -10 39 -10 17 0 36 -4 41 -8 6 -5 48 -14 95 -21 47 -6 105 -16 130
-21 43 -9 152 -21 325 -37 131 -12 512 -8 595 6 41 7 95 15 120 17 86 8 215
25 255 34 178 41 223 52 240 59 43 17 92 31 113 31 11 0 24 5 27 10 3 6 19 10
35 10 16 0 31 4 34 9 3 5 22 12 42 16 20 3 59 17 88 30 28 12 67 28 86 35 90
33 480 224 508 250 9 8 38 25 63 38 25 13 61 36 80 53 19 16 38 29 42 29 4 0
42 23 84 51 78 53 91 63 152 114 20 17 52 42 71 56 112 83 448 420 540 541 8
11 24 30 35 41 11 12 37 47 58 77 20 30 45 66 55 80 41 56 112 167 112 175 0
5 7 16 15 25 17 19 80 119 100 160 63 124 137 287 155 340 12 36 26 73 31 82
5 10 9 25 9 34 0 9 8 33 19 53 31 62 81 214 81 249 0 12 4 22 9 22 4 0 12 17
16 38 3 20 13 69 20 107 7 39 18 88 24 110 43 154 85 521 84 735 -1 134 -32
533 -43 544 -6 6 -10 26 -10 45 0 77 -37 245 -110 501 -10 36 -26 92 -35 125
-9 33 -20 65 -25 70 -4 6 -15 33 -23 60 -17 55 -37 104 -103 244 -24 51 -44
99 -44 106 0 8 -6 20 -13 27 -7 7 -31 47 -53 88 -21 41 -41 77 -44 80 -12 12
-49 69 -69 105 -41 76 -190 295 -201 295 -4 0 -12 11 -18 24 -12 27 -37 56
-126 152 -33 35 -64 70 -68 79 -5 8 -61 68 -126 134 -98 100 -266 243 -422
361 -18 14 -38 30 -44 36 -6 5 -38 28 -71 50 -84 54 -95 61 -140 85 -22 12
-58 34 -80 49 -22 14 -107 59 -190 99 -82 40 -158 77 -167 82 -10 5 -24 9 -33
9 -8 0 -35 12 -60 26 -26 14 -71 32 -101 40 -30 8 -74 23 -96 34 -23 11 -52
20 -65 20 -13 0 -32 5 -43 10 -11 6 -28 14 -38 19 -10 5 -61 19 -113 31 -52
12 -105 25 -119 30 -14 5 -47 13 -75 19 -27 5 -63 12 -80 16 -16 3 -48 10 -70
16 -22 5 -87 14 -145 20 -134 13 -787 21 -820 9z m750 -149 c41 -5 104 -12
140 -15 36 -4 81 -11 100 -15 19 -5 54 -14 76 -20 23 -6 57 -11 77 -11 20 0
39 -4 42 -10 3 -5 19 -10 34 -10 15 0 31 -4 36 -8 6 -5 35 -14 65 -21 30 -7
64 -16 75 -21 11 -4 47 -18 80 -30 33 -12 68 -26 77 -31 10 -5 27 -9 38 -9 10
0 35 -9 55 -20 20 -11 42 -20 49 -20 8 0 53 -18 100 -40 47 -22 90 -40 95 -40
6 0 27 -10 48 -22 21 -12 79 -43 130 -69 50 -25 105 -56 121 -68 17 -11 33
-21 37 -21 3 0 25 -12 48 -27 23 -16 50 -32 58 -38 46 -29 169 -117 205 -146
22 -19 56 -45 74 -59 102 -76 222 -190 400 -380 38 -41 70 -78 70 -82 0 -4 10
-17 23 -30 12 -13 38 -43 57 -68 19 -25 37 -47 40 -50 18 -17 89 -109 100
-129 7 -14 17 -30 22 -35 36 -44 76 -105 83 -125 4 -14 16 -34 26 -45 11 -11
19 -25 19 -32 0 -7 4 -14 8 -16 4 -1 26 -39 49 -83 22 -44 48 -93 56 -110 40
-75 116 -243 125 -275 6 -19 22 -66 37 -105 15 -38 34 -97 42 -130 8 -33 19
-65 23 -71 5 -6 14 -35 20 -65 6 -30 18 -74 25 -99 14 -44 38 -163 54 -265 5
-27 18 -108 31 -180 20 -116 22 -163 22 -445 1 -173 -4 -342 -10 -375 -5 -33
-17 -105 -26 -160 -9 -55 -20 -111 -25 -125 -5 -14 -14 -59 -21 -100 -6 -41
-18 -93 -25 -115 -7 -22 -17 -55 -20 -74 -12 -57 -74 -241 -106 -316 -17 -38
-40 -92 -52 -120 -44 -108 -161 -343 -201 -405 -23 -36 -60 -94 -81 -130 -33
-56 -117 -175 -135 -190 -3 -3 -23 -27 -43 -55 -60 -80 -79 -104 -127 -157
-25 -28 -54 -62 -65 -76 -11 -15 -42 -49 -70 -77 -27 -28 -66 -69 -85 -91 -31
-35 -106 -103 -179 -160 -41 -33 -115 -94 -142 -118 -15 -13 -48 -38 -75 -56
-27 -18 -58 -41 -69 -51 -18 -15 -43 -30 -120 -73 -11 -6 -46 -28 -78 -49 -31
-20 -62 -37 -67 -37 -6 0 -10 -4 -10 -9 0 -5 -8 -11 -17 -14 -10 -3 -29 -12
-43 -20 -43 -25 -262 -126 -335 -155 -151 -60 -211 -82 -221 -82 -6 0 -33 -9
-60 -19 -27 -10 -121 -36 -209 -56 -88 -21 -186 -44 -218 -51 -32 -8 -73 -14
-90 -14 -18 0 -48 -4 -67 -10 -72 -19 -511 -32 -723 -20 -111 6 -218 13 -237
15 -167 21 -382 67 -405 87 -5 4 -25 8 -45 8 -20 0 -40 4 -45 8 -6 5 -44 19
-85 31 -41 12 -97 31 -124 42 -27 10 -56 19 -65 19 -10 0 -21 4 -26 8 -6 5
-32 17 -60 27 -52 18 -165 71 -350 161 -101 50 -283 156 -295 173 -11 16 -69
51 -84 51 -9 0 -16 3 -16 8 0 4 -19 19 -43 34 -23 15 -53 39 -67 53 -13 14
-28 25 -34 25 -6 0 -24 13 -41 28 -16 15 -41 35 -55 45 -28 19 -157 136 -234
212 -68 67 -177 189 -255 285 -20 25 -46 56 -58 70 -13 14 -23 28 -23 32 0 3
-6 13 -13 20 -7 7 -24 29 -37 48 -13 19 -27 37 -30 40 -3 3 -10 16 -16 30 -6
14 -27 45 -46 70 -39 51 -178 294 -178 310 0 6 -13 30 -28 53 -27 40 -62 108
-62 121 0 3 -11 30 -25 60 -14 30 -25 60 -25 66 0 7 -9 29 -19 49 -25 47 -106
298 -122 379 -7 34 -16 62 -20 62 -4 0 -12 33 -19 73 -6 39 -17 99 -25 132 -8
33 -19 96 -24 140 -6 44 -13 98 -16 120 -23 163 -26 228 -20 410 3 110 6 222
6 249 -1 27 3 54 8 60 4 6 14 63 20 126 7 63 17 131 22 150 5 19 14 65 19 102
5 36 16 86 23 110 8 24 20 68 27 98 7 30 15 60 19 65 6 11 40 117 72 230 11
38 24 74 29 80 4 5 14 29 21 53 6 23 15 42 19 42 3 0 12 17 19 38 8 20 27 66
45 102 17 36 31 67 32 70 4 22 69 137 85 150 3 3 9 17 12 32 4 15 13 33 20 40
6 7 21 31 32 53 11 22 29 52 40 66 11 14 26 35 32 45 7 10 24 36 38 57 13 21
32 51 40 67 8 16 42 57 75 90 33 33 66 73 74 88 17 33 354 375 411 417 22 16
65 52 95 80 30 28 100 82 155 120 55 38 102 72 105 75 3 3 26 18 52 33 26 15
53 33 60 41 8 8 32 23 54 34 78 39 128 67 142 79 7 7 25 16 40 20 14 3 35 15
46 25 11 10 27 18 35 18 9 0 30 9 48 19 17 11 55 30 85 42 29 12 72 30 95 40
24 11 49 19 56 19 7 0 17 4 22 8 6 5 30 14 55 21 25 8 63 21 85 31 22 10 74
27 115 38 41 12 102 28 135 37 160 44 319 72 483 84 61 4 115 11 119 15 11 10
580 0 673 -13z"/>
<path d="M3675 7460 c-27 -5 -90 -14 -140 -21 -49 -7 -98 -19 -107 -27 -16
-13 -18 -41 -20 -241 l-3 -226 -30 -14 c-16 -8 -46 -18 -65 -22 -81 -18 -195
-49 -252 -69 -57 -20 -108 -21 -108 -2 0 5 -18 35 -39 68 -22 34 -57 94 -78
135 -21 41 -53 95 -71 122 -38 54 -68 61 -131 28 -20 -10 -70 -33 -111 -52
-41 -18 -84 -40 -95 -49 -11 -9 -51 -32 -90 -51 -113 -55 -395 -242 -494 -326
-14 -13 -31 -23 -37 -23 -6 0 -16 -11 -22 -24 -13 -30 -4 -67 29 -118 13 -20
38 -59 54 -87 17 -28 33 -51 38 -51 4 0 7 -7 7 -15 0 -8 8 -23 18 -34 14 -15
72 -114 72 -124 0 -2 -67 -71 -148 -155 -158 -161 -170 -169 -220 -134 -25 18
-77 47 -197 112 -27 15 -67 37 -88 48 -21 12 -48 22 -60 22 -23 0 -26 -3 -79
-85 -18 -27 -38 -56 -46 -64 -21 -21 -94 -130 -138 -206 -57 -96 -216 -413
-219 -435 0 -3 -3 -9 -6 -15 -4 -5 -12 -28 -19 -50 -7 -22 -19 -50 -27 -63
-12 -20 -12 -25 1 -44 15 -21 86 -66 166 -105 19 -9 37 -20 40 -23 3 -3 35
-20 72 -39 116 -58 122 -70 89 -182 -45 -153 -46 -158 -62 -234 -6 -33 -19
-66 -27 -72 -12 -10 -73 -13 -228 -13 -234 0 -238 -1 -249 -63 -14 -82 -25
-280 -25 -461 0 -209 23 -505 42 -543 11 -23 13 -23 233 -23 162 0 225 -3 236
-12 16 -14 39 -85 59 -185 7 -35 16 -63 20 -63 4 0 13 -26 20 -57 7 -32 19
-71 27 -86 13 -26 13 -31 -3 -48 -9 -10 -37 -29 -63 -42 -57 -28 -94 -50 -101
-58 -3 -3 -30 -19 -60 -36 -87 -48 -134 -76 -148 -90 -14 -14 -8 -68 9 -78 5
-4 9 -13 9 -21 0 -8 9 -33 19 -57 11 -23 29 -64 41 -92 62 -146 235 -421 397
-630 5 -5 16 -22 26 -37 9 -15 28 -35 42 -44 22 -14 27 -14 62 2 21 10 64 35
95 56 31 21 62 38 67 38 6 0 11 5 11 10 0 6 4 10 9 10 5 0 38 17 72 38 123 73
94 82 261 -82 82 -80 148 -151 147 -158 0 -7 -13 -35 -29 -63 -16 -27 -42 -72
-56 -100 -15 -27 -29 -52 -33 -55 -18 -14 -81 -153 -81 -178 0 -31 42 -82 66
-82 8 0 14 -4 14 -10 0 -5 5 -10 11 -10 8 0 79 -50 99 -70 3 -3 17 -11 33 -19
15 -8 27 -18 27 -23 0 -4 4 -8 10 -8 8 0 119 -67 145 -88 13 -10 321 -163 360
-178 173 -68 187 -73 206 -61 10 6 24 24 30 39 6 16 15 28 20 28 5 0 9 7 9 16
0 9 20 49 45 88 25 40 45 75 45 79 0 10 74 132 84 139 11 8 68 -1 76 -12 3 -4
21 -10 40 -13 60 -10 94 -18 125 -32 24 -11 137 -35 166 -35 3 0 9 -102 12
-227 8 -271 1 -257 134 -270 135 -12 633 -9 753 5 184 22 195 24 208 34 9 8
12 68 12 238 0 248 -1 243 60 253 74 12 100 20 100 28 0 5 18 9 39 9 22 0 43
5 46 10 3 6 15 10 26 10 19 0 28 4 76 28 46 24 103 10 103 -25 0 -7 29 -56 65
-109 36 -53 65 -100 65 -104 0 -10 54 -93 80 -122 18 -22 23 -22 63 -4 18 8
59 26 93 40 63 26 289 141 312 159 20 16 75 47 95 53 9 4 17 10 17 15 0 5 5 9
11 9 9 0 97 55 109 69 3 3 16 12 31 19 14 7 39 26 57 43 17 16 34 29 37 29 12
0 120 92 128 109 6 12 -5 40 -40 97 -26 43 -54 90 -60 104 -7 14 -24 43 -38
65 -37 59 -75 133 -75 145 0 5 65 76 144 157 l145 146 58 -30 c79 -41 133 -72
165 -94 14 -11 31 -19 36 -19 6 0 12 -4 14 -8 2 -4 29 -20 60 -36 65 -31 90
-28 116 12 9 15 28 39 42 53 14 15 47 60 75 100 27 41 52 76 56 79 3 3 14 21
24 40 10 19 21 37 25 40 4 3 25 39 46 80 21 41 43 78 49 82 5 4 7 8 3 8 -4 0
1 15 12 32 10 18 26 49 35 68 9 19 36 76 60 125 24 50 47 102 50 118 4 15 12
27 18 27 6 0 8 3 4 6 -3 3 -1 17 4 31 8 21 5 29 -19 51 -16 15 -58 42 -93 61
-35 18 -98 52 -139 74 -41 22 -87 46 -103 54 -39 21 -47 42 -36 93 5 24 13 48
17 54 9 15 39 133 56 223 8 40 17 77 21 82 4 7 82 11 223 11 264 0 258 -2 273
111 11 77 13 568 4 699 -7 87 -24 255 -31 287 -4 22 -4 22 -227 16 -258 -6
-254 -7 -264 77 -3 30 -9 60 -13 65 -4 6 -11 26 -15 45 -4 19 -12 46 -17 60
-5 14 -9 26 -9 27 0 1 -9 26 -20 55 -20 55 -25 118 -10 118 5 0 43 23 85 50
42 28 79 50 82 50 3 0 32 18 64 40 32 22 62 40 66 40 4 0 22 11 41 26 43 33
42 56 -3 153 -21 42 -47 99 -59 126 -12 28 -30 65 -41 84 -10 18 -50 88 -88
155 -61 108 -109 181 -127 196 -3 3 -14 21 -24 40 -10 18 -23 40 -29 47 -6 6
-33 44 -61 82 -62 87 -85 102 -123 78 -15 -9 -50 -28 -78 -42 -28 -15 -61 -35
-72 -46 -12 -10 -25 -19 -30 -19 -5 0 -37 -18 -71 -40 -34 -22 -65 -40 -70
-40 -5 0 -14 -7 -21 -15 -7 -8 -16 -15 -21 -15 -5 0 -62 53 -126 118 -65 65
-137 133 -160 152 -24 19 -43 42 -43 50 0 8 15 38 33 65 49 73 177 321 177
343 0 20 -39 62 -57 62 -6 0 -13 3 -15 8 -5 12 -86 72 -97 72 -5 0 -11 3 -13
8 -3 8 -96 72 -104 72 -3 0 -18 8 -32 19 -15 10 -44 28 -64 40 -21 11 -55 31
-75 43 -63 35 -307 158 -317 158 -5 0 -35 14 -68 30 -72 37 -107 38 -136 5
-12 -14 -22 -31 -22 -38 0 -7 -8 -24 -17 -37 -18 -25 -25 -38 -98 -180 -21
-41 -47 -85 -58 -97 -21 -23 -61 -31 -71 -14 -3 5 -23 11 -43 14 -66 10 -108
19 -118 27 -5 4 -50 15 -99 25 -48 10 -94 25 -102 33 -11 11 -14 59 -14 238
l0 224 -27 11 c-16 6 -73 16 -128 21 -132 13 -616 18 -680 8z m508 -344 c3 -7
6 -109 7 -225 0 -116 3 -218 6 -226 4 -8 16 -15 27 -15 48 0 362 -63 447 -90
14 -4 45 -13 70 -20 90 -25 175 -53 192 -61 10 -5 24 -9 33 -9 8 0 29 -8 47
-18 70 -39 86 -34 120 33 36 69 57 107 68 120 7 8 9 15 4 15 -5 0 -4 4 1 8 6
4 20 27 31 52 40 94 78 150 100 150 19 0 61 -20 231 -109 23 -12 47 -29 54
-37 6 -8 17 -14 25 -14 7 0 25 -10 39 -22 l26 -23 -44 -85 c-42 -83 -104 -195
-152 -275 -13 -22 -24 -43 -25 -46 0 -12 36 -46 85 -79 28 -19 55 -39 61 -45
6 -6 31 -27 54 -46 151 -122 257 -231 389 -399 64 -82 81 -100 98 -100 17 0
153 82 153 92 0 4 7 8 15 8 8 0 15 3 15 8 0 4 10 12 23 18 12 6 60 32 106 58
l84 47 33 -38 c18 -21 45 -60 59 -88 15 -27 44 -81 67 -120 22 -38 42 -86 45
-106 5 -32 1 -39 -25 -58 -17 -11 -33 -21 -37 -21 -3 0 -25 -13 -48 -28 -23
-15 -54 -34 -69 -41 -15 -8 -36 -21 -46 -30 -19 -17 -43 -31 -105 -65 -55 -29
-62 -47 -36 -93 26 -46 86 -201 118 -303 13 -41 27 -83 32 -92 5 -9 13 -45 19
-80 5 -35 17 -85 25 -113 9 -27 19 -88 22 -135 9 -127 -6 -120 263 -120 199 0
229 -2 234 -16 9 -24 7 -412 -2 -418 -5 -3 -98 -6 -206 -7 -184 -1 -265 -10
-267 -27 0 -4 -3 -16 -5 -27 -2 -11 -9 -62 -14 -114 -5 -51 -14 -109 -19 -127
-5 -19 -6 -34 -3 -34 4 0 2 -4 -3 -8 -6 -4 -17 -38 -24 -77 -8 -38 -17 -74
-21 -80 -5 -5 -15 -43 -23 -83 -9 -40 -20 -78 -25 -85 -5 -7 -13 -28 -17 -47
-4 -19 -13 -44 -19 -55 -38 -60 -55 -175 -27 -175 5 0 40 -19 77 -42 82 -49
170 -98 242 -134 35 -18 52 -32 52 -45 0 -24 -95 -206 -173 -334 -18 -28 -34
-45 -45 -45 -12 0 -112 52 -150 78 -15 10 -39 23 -54 30 -15 6 -46 24 -70 39
-65 42 -120 65 -143 59 -11 -3 -33 -25 -48 -48 -15 -24 -39 -56 -53 -73 -14
-16 -43 -50 -63 -75 -44 -55 -263 -272 -311 -308 -77 -59 -150 -126 -155 -143
-4 -13 6 -36 29 -68 20 -27 36 -53 36 -59 0 -6 6 -17 14 -24 7 -8 21 -27 30
-43 9 -17 22 -39 29 -50 89 -141 93 -152 65 -182 -12 -13 -33 -30 -47 -37 -54
-28 -77 -42 -107 -63 -59 -42 -164 -93 -193 -93 -22 0 -31 7 -41 30 -7 16 -15
30 -19 30 -4 0 -15 17 -26 38 -11 20 -22 39 -25 42 -3 3 -20 37 -39 75 -48 99
-98 165 -124 165 -12 0 -42 -10 -67 -22 -25 -12 -54 -25 -65 -28 -11 -4 -31
-12 -45 -18 -14 -5 -52 -20 -85 -32 -33 -12 -68 -26 -77 -31 -10 -5 -25 -9
-35 -9 -9 0 -42 -8 -72 -19 -79 -26 -196 -52 -261 -57 -98 -8 -157 -25 -169
-48 -7 -13 -12 -105 -14 -241 l-2 -220 -215 0 -215 0 -3 224 c-3 264 -2 261
-91 261 -52 0 -151 17 -316 55 -38 9 -81 19 -95 22 -14 2 -35 9 -47 14 -41 16
-67 26 -143 52 -41 14 -102 35 -134 47 -33 12 -69 19 -81 16 -14 -4 -32 -29
-55 -76 -19 -39 -40 -76 -47 -81 -6 -6 -15 -24 -18 -40 -4 -16 -10 -29 -14
-29 -3 0 -21 -28 -38 -63 -29 -56 -66 -107 -78 -107 -12 0 -237 116 -253 129
-9 9 -30 23 -47 31 -45 22 -66 50 -59 74 4 12 27 56 50 100 24 43 44 82 44 86
0 4 7 13 15 20 8 7 12 16 9 21 -3 5 -1 9 3 9 17 0 75 130 69 154 -4 15 -43 52
-102 96 -93 71 -119 94 -241 211 -79 76 -200 211 -243 270 -32 45 -38 48 -77
49 -24 0 -43 -4 -43 -9 0 -5 -8 -11 -17 -14 -21 -7 -106 -56 -113 -66 -3 -3
-27 -17 -55 -31 -27 -14 -52 -27 -55 -31 -3 -3 -27 -20 -54 -39 -65 -44 -60
-47 -148 104 -13 21 -28 46 -33 55 -92 147 -107 187 -78 213 22 19 101 67 126
75 9 3 17 9 17 14 0 5 7 9 15 9 8 0 15 5 15 10 0 6 5 10 11 10 6 0 30 14 54
30 24 17 46 30 49 30 4 0 22 10 41 22 43 28 44 50 6 126 -45 90 -131 329 -131
365 0 9 -4 25 -10 35 -5 9 -19 60 -30 112 -26 123 -26 124 -35 200 -13 108 7
100 -253 100 -164 0 -231 3 -240 12 -17 17 -16 387 1 410 11 14 41 17 230 20
176 2 219 6 231 18 10 10 18 55 25 132 6 65 16 130 22 145 6 15 17 62 25 103
16 84 86 306 133 420 17 41 31 80 31 86 0 7 -16 19 -35 28 -19 9 -37 21 -40
26 -3 5 -18 15 -33 23 -28 15 -123 66 -157 85 -11 6 -27 13 -35 16 -8 3 -33
16 -55 29 -58 35 -57 56 12 190 32 61 61 114 64 117 3 3 12 16 19 29 7 14 17
30 21 35 5 6 17 21 27 33 l17 22 56 -27 c31 -16 66 -38 79 -50 13 -12 39 -27
57 -34 18 -7 33 -16 33 -20 0 -4 8 -8 18 -8 9 0 28 -9 42 -20 14 -11 31 -20
38 -20 6 0 12 -3 12 -7 0 -11 50 -33 71 -33 11 0 38 28 66 68 78 110 121 160
263 302 130 131 194 190 205 190 6 0 33 21 87 69 35 30 49 64 31 73 -5 2 -26
37 -47 78 -22 41 -50 90 -63 110 -13 19 -29 43 -36 54 -6 10 -19 28 -28 40 -9
11 -24 35 -33 53 -14 29 -15 33 0 48 20 19 130 95 139 95 4 0 19 8 33 19 15
10 44 28 65 40 20 11 53 30 72 41 20 11 40 20 45 20 9 0 100 -122 100 -135 0
-3 15 -30 34 -58 19 -29 40 -64 47 -79 7 -16 16 -28 20 -28 4 0 10 -9 14 -20
6 -18 61 -80 70 -80 3 0 19 8 37 18 18 10 53 26 78 36 25 10 59 24 75 31 65
28 142 54 195 65 30 7 64 16 75 20 11 5 34 11 50 15 17 3 48 10 70 16 43 10
136 26 225 37 l55 7 3 234 c1 152 6 239 13 248 17 20 445 19 452 -1z"/>
<path d="M3715 6466 c-30 -46 12 -78 49 -37 22 24 13 61 -14 61 -11 0 -26 -11
-35 -24z"/>
<path d="M3871 6411 c-35 -32 -38 -46 -16 -67 11 -11 15 -39 15 -103 0 -93 8
-110 56 -125 23 -7 84 15 102 36 20 25 0 39 -36 26 -46 -18 -56 -3 -56 84 l-1
73 35 3 c19 2 41 9 48 14 21 18 38 -8 77 -119 35 -100 36 -103 18 -130 -10
-15 -35 -44 -55 -63 -21 -20 -38 -39 -38 -43 0 -4 19 -7 43 -7 36 0 45 5 63
33 21 32 56 104 114 232 17 39 41 78 53 87 30 23 13 39 -48 46 -56 6 -78 -13
-45 -38 20 -15 20 -17 4 -65 -9 -28 -20 -54 -24 -58 -6 -7 -50 92 -50 114 0 5
7 9 15 9 8 0 15 9 15 20 0 19 -7 20 -114 20 -110 0 -115 1 -118 22 -5 32 -22
32 -57 -1z"/>
<path d="M4804 6399 c-19 -10 -44 -50 -58 -91 -3 -10 -12 -18 -20 -18 -18 0
-29 -29 -16 -45 7 -8 1 -37 -18 -93 -23 -70 -30 -82 -49 -82 -16 0 -23 -6 -23
-18 0 -14 13 -22 51 -32 27 -8 52 -18 55 -22 9 -14 42 -9 48 7 3 9 -3 19 -17
26 -12 7 -24 13 -26 15 -1 1 9 39 24 83 26 80 27 81 61 81 27 0 34 4 34 20 0
11 -6 20 -12 20 -36 1 -40 16 -20 64 23 51 27 53 60 30 18 -12 26 -13 37 -4
20 16 19 26 -5 50 -22 22 -71 26 -106 9z"/>
<path d="M3708 6373 c-34 -5 -40 -43 -8 -43 22 0 26 -11 35 -109 5 -48 3 -66
-7 -72 -22 -14 -28 -10 -28 17 0 15 -12 38 -29 55 -24 23 -38 29 -74 29 -51 0
-72 24 -41 47 26 19 40 16 69 -13 30 -30 49 -23 40 15 -8 35 -31 51 -73 51
-62 0 -102 -32 -102 -82 0 -48 28 -73 99 -89 34 -7 61 -16 61 -19 -1 -14 -18
-30 -45 -40 -27 -10 -32 -9 -55 19 -40 49 -61 37 -44 -26 13 -46 114 -54 166
-13 15 11 29 15 34 10 5 -5 40 -6 79 -2 54 5 70 11 73 24 2 11 -5 19 -21 23
-23 6 -26 13 -38 113 -15 118 -15 117 -91 105z"/>
<path d="M4493 6333 c-56 -11 -105 -115 -85 -181 19 -63 53 -87 122 -87 67 0
92 16 121 80 30 65 20 124 -27 166 -20 17 -93 30 -131 22z m87 -70 c18 -23 20
-36 15 -73 -8 -57 -29 -90 -58 -90 -59 1 -85 77 -53 155 12 29 20 35 45 35 20
0 36 -8 51 -27z"/>
<path d="M3385 6300 c-3 -5 -20 -9 -38 -8 -38 1 -100 -28 -94 -45 2 -6 14 -14
28 -17 20 -5 28 -19 48 -88 25 -84 24 -105 -4 -82 -13 11 -20 9 -40 -10 -34
-32 -101 -32 -127 0 -10 12 -18 25 -18 29 1 3 29 22 63 42 77 45 85 71 31 94
-54 23 -85 19 -128 -17 -38 -31 -38 -32 -34 -93 4 -72 36 -123 88 -145 36 -15
98 0 126 32 10 10 30 18 45 18 15 0 38 4 51 9 13 5 42 15 66 22 53 16 55 44 3
44 -33 0 -34 2 -53 63 -25 79 -20 96 27 88 31 -6 35 -4 41 19 4 15 1 31 -6 40
-14 17 -66 20 -75 5z m-211 -126 c23 -9 20 -18 -15 -33 -36 -16 -45 -10 -29
18 11 22 19 25 44 15z"/>
<path d="M5022 6270 c-18 -29 -15 -40 12 -40 32 0 96 -28 96 -41 0 -6 -15 -37
-34 -68 -19 -31 -48 -85 -65 -119 -29 -58 -35 -63 -57 -58 -32 8 -44 -19 -18
-39 36 -27 117 -63 130 -58 20 7 17 20 -7 37 l-22 15 43 83 c94 184 102 192
160 138 37 -35 37 -35 56 -16 24 25 16 42 -33 67 -27 13 -85 45 -131 71 -93
53 -111 57 -130 28z"/>
<path d="M2967 6144 c-41 -27 -44 -47 -9 -52 22 -3 27 -15 35 -79 4 -40 -2
-41 -45 -6 -44 37 -49 45 -36 61 8 9 8 16 -1 25 -9 9 -24 5 -67 -17 -58 -31
-69 -58 -25 -64 13 -2 63 -35 110 -73 85 -69 118 -81 114 -44 -1 11 -5 77 -9
148 -5 82 -11 127 -18 126 -6 0 -28 -11 -49 -25z"/>
<path d="M2652 6083 c-12 -22 2 -63 20 -63 26 0 40 18 36 46 -4 35 -41 46 -56
17z"/>
<path d="M2693 5985 c-37 -29 -35 -60 2 -51 19 5 30 -5 69 -62 25 -38 46 -74
46 -80 0 -6 -10 -17 -22 -23 -20 -11 -25 -8 -53 26 -63 80 -92 105 -123 105
-33 0 -82 -34 -82 -56 0 -8 -10 -14 -23 -14 -25 0 -77 -47 -77 -69 0 -9 9 -12
25 -9 26 5 36 -4 103 -89 29 -36 31 -45 22 -64 -10 -17 -9 -23 1 -30 16 -10
34 0 85 48 47 44 50 46 173 131 50 34 91 69 91 77 0 21 -19 28 -36 14 -10 -8
-18 -9 -22 -3 -17 25 -80 122 -95 147 -22 34 -43 34 -84 2z m-29 -207 c51 -58
54 -68 29 -90 -34 -29 -50 -28 -76 5 -14 18 -35 43 -46 56 -25 29 -25 30 -5
59 24 34 48 27 98 -30z"/>
<path d="M5301 5971 c-19 -4 -47 -20 -67 -41 -100 -101 -40 -230 107 -230 26
0 29 -3 29 -34 0 -42 44 -90 89 -99 21 -4 31 -12 31 -24 0 -10 23 -43 51 -73
45 -47 105 -121 192 -234 12 -16 28 -40 36 -55 25 -46 64 -92 75 -88 6 2 11
17 11 32 0 24 9 34 50 58 61 36 105 83 105 113 0 12 -15 37 -32 55 -18 19 -33
41 -34 50 -1 9 -12 30 -25 48 -28 38 -55 38 -51 0 3 -22 -7 -32 -67 -72 -39
-26 -74 -47 -78 -47 -5 0 -14 9 -21 21 -12 19 -7 26 57 87 39 37 71 75 71 85
0 33 -37 87 -59 87 -17 0 -22 18 -8 32 7 7 35 31 60 52 50 41 58 62 30 73 -10
4 -25 15 -34 25 -9 10 -24 18 -34 18 -14 0 -16 -6 -12 -30 7 -35 -2 -45 -206
-222 -28 -25 -40 -22 -33 6 5 19 1 25 -17 30 -13 3 -36 15 -50 27 -45 35 -33
109 25 152 24 18 31 19 53 7 18 -10 25 -22 25 -44 0 -17 7 -40 15 -50 20 -27
45 -5 45 40 0 51 -57 104 -111 104 -22 0 -50 -5 -62 -11 -27 -15 -77 -65 -77
-79 0 -34 -102 17 -120 61 -10 23 0 79 14 79 2 0 36 -16 76 -36 77 -38 90 -36
90 14 0 27 -26 86 -43 100 -18 14 -58 19 -96 13z m72 -63 c8 -31 3 -33 -32
-12 -39 23 -39 34 -2 34 21 0 30 -6 34 -22z m347 -328 c11 -6 24 -19 30 -30 9
-18 4 -27 -40 -70 -59 -57 -89 -64 -108 -23 -12 26 -10 30 40 79 29 29 54 53
56 53 2 1 12 -4 22 -9z m207 -256 c17 -27 17 -27 -19 -58 -60 -52 -92 -67
-111 -53 -9 7 -19 24 -22 38 -5 22 0 30 47 62 64 43 82 45 105 11z"/>
<path d="M3945 5894 c-30 -8 -68 -27 -89 -46 -11 -10 -23 -18 -27 -18 -10 0
-49 -64 -49 -82 0 -8 18 -24 40 -37 22 -12 64 -44 94 -71 29 -28 59 -50 66
-50 7 0 41 27 77 60 35 33 70 60 78 60 8 0 15 4 15 9 0 5 9 13 20 16 11 3 20
15 20 26 0 22 -68 96 -108 116 -29 16 -105 25 -137 17z"/>
<path d="M2264 5782 c-43 -53 -45 -58 -30 -71 11 -9 18 -8 30 5 14 14 19 14
34 2 43 -34 80 -67 130 -115 50 -48 54 -55 48 -85 -7 -38 -51 -86 -81 -88 -45
-5 -62 2 -106 43 -25 23 -63 57 -84 76 -30 26 -39 40 -37 62 4 47 -17 43 -68
-12 -53 -58 -63 -89 -30 -89 11 0 20 5 20 10 0 6 6 10 13 10 12 0 26 -11 112
-88 27 -24 68 -55 93 -69 41 -24 47 -25 80 -13 45 16 106 72 127 116 13 27 14
41 5 71 -12 44 -38 75 -132 156 -53 47 -66 63 -65 85 3 40 -24 37 -59 -6z"/>
<path d="M4290 5734 c-51 -10 -113 -50 -181 -117 -38 -38 -69 -72 -69 -76 0
-15 -37 -51 -53 -51 -8 0 -40 24 -70 53 -30 28 -74 68 -97 86 -24 19 -48 40
-54 47 -7 6 -32 21 -56 33 -104 50 -213 -1 -127 -60 60 -42 242 -234 276 -292
34 -58 120 -261 121 -284 0 -19 20 -16 26 5 3 9 10 26 14 37 5 11 12 36 16 55
3 19 10 44 14 55 4 11 8 23 9 28 2 16 52 106 90 164 53 81 171 200 245 248 26
17 35 49 17 59 -14 9 -92 15 -121 10z"/>
<path d="M3307 5656 c-3 -8 1 -20 9 -26 8 -7 14 -17 14 -23 0 -5 10 -24 23
-41 13 -17 27 -38 31 -46 4 -8 20 -37 36 -65 49 -84 132 -257 146 -305 7 -25
20 -63 28 -85 8 -22 15 -49 16 -60 0 -11 9 -48 19 -81 11 -34 25 -99 31 -145
6 -46 15 -93 20 -104 20 -45 30 -415 30 -1139 l0 -764 23 -6 c45 -12 164 -7
176 8 10 11 11 259 6 1063 -6 998 -9 1094 -35 1158 -5 11 -13 34 -19 50 -33
99 -118 265 -172 340 -29 39 -198 205 -209 205 -4 0 -38 18 -74 40 -70 43 -91
48 -99 26z"/>
<path d="M4610 5660 c-8 -4 -32 -16 -52 -24 -58 -25 -125 -80 -224 -182 -129
-134 -190 -258 -236 -484 -16 -80 -23 -2177 -7 -2196 8 -10 36 -14 91 -14 132
0 118 -117 111 919 -5 677 -3 900 5 905 7 4 12 31 13 59 0 67 40 282 73 397 3
8 12 42 21 75 8 33 18 67 22 75 3 8 7 17 8 20 18 53 116 248 176 352 28 48 48
92 44 98 -7 12 -24 12 -45 0z"/>
<path d="M1910 5398 c-11 -18 -20 -45 -20 -60 0 -30 35 -77 74 -97 14 -8 26
-23 26 -33 0 -13 8 -18 31 -18 24 0 109 -46 158 -86 2 -2 -4 -15 -13 -28 l-16
-25 -77 41 c-43 22 -82 44 -87 49 -20 18 -43 8 -59 -26 -9 -20 -17 -42 -17
-50 0 -8 -9 -24 -20 -35 -11 -11 -20 -31 -20 -44 0 -13 -5 -26 -11 -28 -10 -3
-38 -70 -39 -91 0 -17 32 -19 44 -2 14 19 3 22 129 -34 26 -12 47 -25 47 -31
0 -5 -12 -17 -26 -27 -25 -16 -29 -16 -105 10 -65 23 -82 25 -98 15 -23 -14
-46 -87 -37 -121 9 -38 40 -71 59 -64 23 9 21 49 -2 64 -29 18 -16 53 19 53
31 0 40 -18 40 -82 0 -28 7 -42 30 -61 33 -29 42 -64 13 -52 -10 3 -40 11 -66
16 -27 5 -53 11 -58 15 -15 9 -78 -16 -89 -36 -6 -10 -10 -38 -10 -61 0 -47
11 -45 -110 -20 -25 5 -48 7 -52 5 -12 -8 -9 -102 3 -110 7 -4 19 2 28 14 17
21 36 21 176 -8 28 -6 72 -13 98 -17 39 -4 50 -10 58 -29 4 -13 15 -24 23 -24
15 0 24 27 36 110 14 98 31 174 46 202 10 18 13 40 8 63 -5 30 -3 38 20 56 14
11 26 29 26 39 0 10 13 49 29 86 16 38 27 72 25 76 -10 16 -34 7 -46 -16 l-13
-24 -45 20 c-84 37 -90 41 -90 60 0 10 9 23 20 30 24 15 26 36 5 44 -17 7 -18
13 -6 33 7 11 25 5 88 -28 72 -37 80 -44 75 -66 -3 -20 0 -25 17 -25 16 0 30
18 62 82 22 44 52 98 66 119 14 21 22 43 18 48 -9 16 -35 13 -41 -4 -9 -22
-26 -19 -90 20 -76 46 -78 49 -64 75 9 16 9 25 -1 36 -10 13 -15 12 -34 -6
-21 -20 -55 -27 -55 -12 0 5 -11 14 -25 20 -27 13 -33 39 -11 48 33 13 28 64
-5 64 -11 0 -28 -14 -39 -32z m61 -722 c10 -13 -2 -46 -17 -46 -14 0 -35 58
-27 73 5 8 31 -8 44 -27z m-70 -197 c22 -7 39 -19 42 -30 3 -11 1 -19 -4 -19
-5 0 -9 -10 -9 -21 0 -23 4 -23 -122 -3 -36 6 -38 8 -38 45 l0 39 46 0 c26 0
64 -5 85 -11z"/>
<path d="M1840 5179 c-9 -16 -8 -26 5 -45 17 -27 26 -29 43 -12 18 18 14 56
-7 68 -26 14 -29 13 -41 -11z"/>
<path d="M5975 5178 c-46 -17 -79 -43 -99 -81 -51 -94 56 -213 158 -176 57 20
104 65 112 104 9 52 -28 119 -81 145 -46 22 -48 23 -90 8z m102 -75 c14 -55
-4 -90 -60 -118 -46 -23 -82 -19 -95 10 -16 36 -1 68 50 104 56 40 95 41 105
4z"/>
<path d="M4885 5150 c-92 -33 -193 -96 -253 -160 -40 -42 -112 -144 -112 -160
0 -6 -9 -29 -20 -50 -40 -78 -43 -141 -47 -802 -3 -551 -1 -638 11 -638 15 0
46 26 46 39 0 11 70 102 123 161 l47 52 0 408 0 409 29 21 c37 26 70 19 99
-19 19 -26 20 -48 27 -334 l8 -307 31 0 c20 0 44 11 67 29 19 16 57 39 84 50
28 12 75 34 105 49 l55 27 5 525 c3 289 8 532 11 541 6 20 37 68 61 93 29 32
21 58 -25 75 -47 18 -294 12 -352 -9z"/>
<path d="M2751 5137 c-35 -18 -46 -54 -21 -67 11 -6 20 -15 20 -21 0 -5 9 -22
20 -37 38 -52 50 -214 50 -662 0 -223 0 -419 0 -436 0 -29 4 -33 52 -49 56
-18 181 -82 231 -117 22 -16 34 -19 46 -11 14 9 16 46 17 309 1 165 2 309 3
322 3 55 77 81 119 42 17 -16 22 -32 22 -73 0 -29 1 -169 2 -312 0 -143 4
-304 7 -358 l7 -97 55 -58 c61 -63 97 -110 123 -159 9 -18 23 -33 31 -33 13 0
15 70 15 533 0 603 -8 762 -45 877 -22 66 -73 164 -94 180 -4 3 -20 22 -36 43
-16 21 -49 52 -74 70 -25 17 -48 33 -51 37 -16 20 -128 59 -228 79 -73 15
-241 14 -271 -2z"/>
<path d="M6290 5005 c0 -20 -10 -29 -55 -50 -31 -14 -61 -25 -68 -25 -7 0 -17
-4 -22 -9 -6 -4 -41 -20 -79 -35 l-70 -27 -17 22 c-16 22 -39 19 -39 -5 0 -7
11 -39 24 -72 17 -42 29 -59 43 -59 14 0 17 6 15 28 -3 30 -9 27 130 77 42 16
94 36 115 45 21 10 53 24 71 32 38 17 39 21 10 67 -27 42 -58 48 -58 11z"/>
<path d="M6115 4789 c-39 -12 -69 -38 -89 -77 -38 -73 38 -182 126 -182 35 0
115 43 132 71 29 50 12 136 -33 168 -34 24 -95 34 -136 20z m109 -55 c25 -10
21 -76 -6 -100 -55 -48 -119 -57 -144 -19 -27 42 1 85 73 111 44 15 55 16 77
8z"/>
<path d="M5439 4767 c-18 -12 -47 -42 -64 -65 l-30 -44 -3 -333 c-3 -326 -3
-334 17 -354 25 -25 113 -29 165 -7 l33 14 5 393 c3 217 3 400 0 407 -7 21
-85 15 -123 -11z"/>
<path d="M2429 4718 c-1 -7 -1 -181 1 -387 2 -266 6 -378 14 -386 24 -25 53
-32 120 -31 54 1 71 6 82 21 11 15 14 75 14 295 0 252 -2 282 -20 336 -26 76
-56 118 -101 143 -41 23 -108 28 -110 9z"/>
<path d="M6210 4533 c-8 -3 -25 -15 -37 -26 -19 -17 -25 -18 -38 -7 -13 11
-20 11 -41 0 -19 -11 -27 -11 -36 -2 -20 20 -73 14 -94 -9 -27 -30 -25 -134 4
-183 12 -20 17 -36 11 -36 -6 0 -9 -18 -7 -42 3 -38 7 -44 43 -61 61 -30 72
-34 180 -68 132 -41 155 -50 155 -60 0 -5 9 -9 20 -9 16 0 20 7 20 38 0 53
-10 82 -27 82 -8 0 -17 -9 -20 -20 -3 -11 -11 -20 -19 -20 -22 0 -104 24 -104
30 0 8 88 50 105 50 8 0 15 -4 15 -10 0 -5 9 -10 20 -10 17 0 20 7 20 46 0 54
-27 227 -41 265 -17 44 -81 70 -129 52z m88 -89 c4 -36 -27 -58 -74 -52 -50 5
-43 71 9 81 47 10 62 3 65 -29z m-248 -4 c24 -24 28 -111 6 -129 -32 -27 -66
20 -66 94 0 39 7 52 33 54 4 1 16 -8 27 -19z m204 -110 c29 0 57 -5 64 -12 28
-28 11 -44 -95 -96 -115 -56 -113 -55 -180 -5 -18 13 -33 27 -33 31 0 4 20 6
45 4 37 -3 49 0 64 17 22 25 35 83 25 113 -5 15 3 11 26 -15 29 -34 37 -37 84
-37z"/>
<path d="M1570 4258 c-57 -94 14 -209 119 -192 42 7 69 30 90 80 21 52 48 75
79 68 32 -8 42 -20 42 -54 0 -36 -26 -68 -58 -72 -19 -2 -27 -9 -27 -23 0 -17
8 -20 47 -23 43 -3 48 -1 62 26 44 85 25 166 -47 201 -38 18 -48 20 -78 9 -41
-14 -63 -37 -95 -100 -22 -44 -28 -48 -60 -48 l-35 0 3 47 c3 41 7 50 31 61
16 8 27 21 27 33 0 16 -7 19 -40 19 -35 0 -43 -5 -60 -32z"/>
<path d="M5295 3799 c-16 -6 -49 -17 -72 -25 -97 -32 -139 -50 -157 -66 -11
-10 -24 -18 -29 -18 -8 0 -96 -57 -107 -69 -3 -3 -39 -35 -80 -71 -41 -36 -78
-70 -82 -76 -4 -6 -27 -35 -51 -65 -24 -30 -61 -79 -81 -109 -20 -30 -39 -60
-43 -66 -19 -26 -62 -109 -93 -179 -63 -141 -73 -172 -74 -225 l-1 -55 98 -3
97 -3 36 78 c60 133 135 274 172 327 20 28 46 66 58 83 38 56 160 171 226 213
35 22 68 44 75 50 7 5 19 10 27 10 8 0 18 5 21 10 7 11 74 14 99 4 11 -4 16
-19 16 -43 0 -43 -22 -67 -114 -126 -65 -41 -228 -214 -288 -306 -24 -36 -66
-109 -93 -163 -64 -127 -63 -130 72 -134 l99 -3 31 34 c28 31 43 54 75 117 38
75 178 235 248 283 25 17 52 38 60 48 35 39 213 128 315 158 114 34 183 43
290 39 94 -3 100 -2 103 17 3 22 -79 111 -124 136 -15 8 -39 25 -54 39 -33 30
-167 105 -218 120 -20 6 -46 15 -57 20 -50 22 -349 36 -400 19z"/>
<path d="M2445 3778 c-60 -12 -257 -83 -295 -107 -114 -69 -256 -186 -280
-231 -25 -46 -19 -48 138 -53 81 -3 170 -9 197 -15 53 -10 197 -60 205 -71 3
-4 20 -13 38 -20 17 -8 32 -16 32 -20 0 -4 15 -12 33 -19 18 -7 42 -20 53 -29
10 -10 37 -31 59 -47 57 -42 233 -225 257 -266 85 -153 81 -150 208 -150 89 0
109 3 114 16 9 25 7 64 -4 64 -5 0 -10 7 -10 16 0 21 -84 177 -105 194 -8 7
-15 18 -15 24 0 6 -8 19 -17 27 -10 9 -40 43 -67 75 -45 54 -146 144 -161 144
-3 0 -16 9 -28 21 -12 11 -41 30 -64 41 -48 22 -93 64 -93 85 0 8 12 26 26 40
22 21 32 25 66 20 47 -6 148 -54 197 -94 59 -47 214 -205 256 -261 42 -56 69
-98 110 -174 13 -26 29 -49 35 -53 5 -3 10 -14 10 -23 0 -9 6 -29 14 -44 8
-15 17 -40 21 -57 10 -47 38 -61 125 -61 85 0 100 8 100 56 0 66 -96 283 -180
404 -5 8 -24 38 -42 65 -68 106 -183 230 -265 286 -27 18 -61 43 -76 55 -31
26 -135 77 -262 129 -78 32 -249 49 -330 33z"/>
<path d="M5959 3315 c-222 -48 -387 -139 -557 -306 -26 -26 -62 -66 -80 -90
-17 -24 -54 -74 -82 -111 -72 -97 -73 -104 -3 -164 112 -97 121 -98 170 -21
62 98 195 247 270 303 21 16 40 31 43 34 3 3 23 14 45 26 22 11 49 25 60 31
11 6 31 15 45 20 14 6 36 15 50 21 96 39 249 58 352 44 118 -17 118 -17 118
17 0 15 -8 39 -19 52 -10 13 -28 44 -41 68 -25 50 -36 63 -67 79 -28 15 -230
13 -304 -3z"/>
<path d="M1744 3252 c-33 -21 -68 -76 -98 -154 -23 -63 -16 -72 48 -63 128 19
299 4 421 -37 50 -17 158 -71 204 -103 23 -16 50 -34 59 -40 35 -22 107 -94
166 -165 59 -73 75 -96 104 -152 7 -16 22 -28 32 -28 16 0 144 121 163 155 7
14 -11 65 -23 65 -4 0 -13 14 -20 30 -7 17 -16 30 -21 30 -4 0 -10 8 -13 18
-7 20 -149 169 -216 225 -25 21 -65 50 -90 64 -25 14 -62 36 -82 49 -21 13
-44 24 -52 24 -8 0 -16 5 -18 10 -4 12 -92 44 -163 59 -27 6 -63 14 -80 17
-16 4 -88 9 -160 11 -116 4 -133 2 -161 -15z"/>
<path d="M3955 2638 c-52 -18 -96 -59 -121 -112 -29 -62 -30 -91 -5 -149 52
-120 184 -164 287 -94 61 40 94 96 94 160 0 139 -130 239 -255 195z"/>
<path d="M4277 2598 c-6 -18 -6 -178 0 -195 4 -10 60 -13 284 -13 154 0 287
-4 297 -9 9 -4 39 -16 66 -25 75 -25 139 -86 121 -116 -4 -6 -139 -10 -379
-10 -298 0 -376 -3 -385 -13 -16 -20 -13 -377 5 -394 10 -10 124 -13 562 -13
535 0 549 0 567 20 16 18 17 32 11 133 -7 122 -18 167 -63 267 -47 104 -96
166 -193 243 -78 62 -124 88 -207 116 -58 19 -85 21 -372 21 -238 0 -310 -3
-314 -12z"/>
<path d="M3205 2590 c-99 -10 -133 -18 -167 -41 -14 -11 -31 -19 -37 -19 -19
0 -150 -83 -187 -119 -68 -66 -118 -143 -157 -240 -31 -80 -40 -117 -49 -219
-11 -112 -10 -124 5 -140 16 -16 62 -17 565 -20 541 -2 548 -2 570 18 21 20
22 28 22 198 0 97 -4 183 -8 189 -6 10 -99 13 -387 15 -340 3 -380 5 -383 19
-4 24 41 72 90 96 89 43 93 43 377 43 226 0 281 3 290 14 8 9 11 48 9 112 l-3
99 -235 1 c-129 0 -271 -2 -315 -6z"/>
<path d="M4005 2032 c-11 -8 -35 -40 -113 -156 -30 -44 -60 -85 -67 -92 -6 -7
-27 -36 -45 -64 -39 -60 -34 -81 21 -92 77 -16 91 -22 126 -58 21 -20 46 -51
55 -69 10 -17 25 -34 34 -38 17 -6 22 -1 54 49 46 71 124 118 198 118 26 0 52
15 52 31 0 4 -6 14 -13 21 -7 7 -27 31 -43 53 -16 22 -38 51 -49 64 -60 72
-73 89 -95 126 -32 53 -83 115 -95 115 -5 0 -14 -4 -20 -8z"/>
</g>
</svg>
